# xmcd
#
# Track frame offsets:
#	150
#	16805
#	30178
#	45040
#	59490
#	76515
#	94500
#	110268
#	128998
#	149833
#	164313
#	184865
#	197625
#	217398
#	232885
#	246808
#	259353
#	278415
#
# Disc length: 3943 seconds
#
# Revision: 7
# Processed by: cddbd v1.5.2PL0 Copyright (c) Steve Scherf et al.
# Submitted via: audiograbber 1.83.01
#
DISCID=ec0f6512
DTITLE=Various Artist - Tolle Scheibe 1 [CD1]
DYEAR=1990
DGENRE=Pop Oldies
TTITLE0=Village People - YMCA 1978
TTITLE1=Middle Of The Road - Chirpy Chirpy Cheep Cheep 1971
TTITLE2=Carl Douglas - Kung Fu Fighting 1974
TTITLE3=Chicory Tip - Son Of My Father 1972
TTITLE4=Blondie - Heart Of Glass 1979
TTITLE5=Billy Swan - I Can Help 1974
TTITLE6=John Paul Young - Love Is In The Air 1977
TTITLE7=Leo Sayer - When I Need You 1977
TTITLE8=Isaac Hayes - Theme From Shaft 1971
TTITLE9=George McCrae - Rock Your Baby 1974
TTITLE10=Baccara - Yes Sir, I Can Boogie 1977
TTITLE11=The Archies - Sugar, Sugar 1969
TTITLE12=Miguel Rios - Song Of Joy 1970
TTITLE13=Danyel Gerard - Butterfly 1971
TTITLE14=Tina Charles - I Love To Love (But My Baby Loves To Dance) 1976
TTITLE15=Bay City Rollers - Bye Bye Baby 1975
TTITLE16=Cliff Richard - We Don´t Talk Anymore 1979
TTITLE17=Amanda Lear - Follow Me 1978
EXTD=1990
EXTT0=
EXTT1=
EXTT2=
EXTT3=
EXTT4=
EXTT5=
EXTT6=
EXTT7=
EXTT8=
EXTT9=
EXTT10=
EXTT11=
EXTT12=
EXTT13=
EXTT14=
EXTT15=
EXTT16=
EXTT17=
PLAYORDER=
